 http://www.imdb.com/title/tt0160184/

Release Date: 4 January 2002 (Denmark)

Genre: Crime | Horror | Mystery | Thriller

Plot: Stallone plays a cop who comes undone after witnessing a brutal scene on the job. He checks into a rehab clinic that specializes in treating law enforcement officials. Soon, he finds that his fellow patients are being murdered one by one.

Cast:
Sylvester Stallone ... Jake Malloy
Charles S. Dutton ... Hendricks
Polly Walker ... Jenny
Kris Kristofferson ... Doc
Mif ... Brandon
Christopher Fulford ... Slater
Jeffrey Wright ... Jaworski
Tom Berenger ... Hank
Stephen Lang ... Jack Bennett
Alan C. Peterson ... Gilbert
Hrothgar Mathews ... Manny
Angela Alvarado ... Lopez (as Angela Alvarado Rosa)
Robert Prosky ... McKenzie
Robert Patrick ... Noah
Courtney B. Vance ... Jones


File Name

D Tox 2002 816p BRRip H264.mp4

File Size
Format : MPEG-4
Format profile : Base Media
Codec ID : isom
File size : 3.70 GiB
Duration : 1h 35mn
Overall bit rate : 5 536 Kbps

Video
ID : 1
Format : AVC
Format/Info : Advanced Video Codec
Format profile : High@L4.1
Format settings, CABAC : Yes
Format settings, ReFrames : 3 frames
Codec ID : avc1
Codec ID/Info : Advanced Video Coding
Duration : 1h 35mn
Bit rate mode : Variable
Bit rate : 4 899 Kbps
Maximum bit rate : 16.9 Mbps
Width : 1 920 pixels
Height : 816 pixels
Display aspect ratio : 2.35:1
Frame rate mode : Constant
Frame rate : 23.976 fps
Resolution : 24 bits
Colorimetry : 4:2:0
Scan type : Progressive
Bits/(Pixel*Frame) : 0.130
Stream size : 3.27 GiB (88%)

Audio #1
ID : 2
Format : AAC
Format/Info : Advanced Audio Codec
Format version : Version 4
Format profile : LC
Format settings, SBR : No
Codec ID : 40
Duration : 1h 35mn
Bit rate mode : Variable
Bit rate : 192 Kbps
Maximum bit rate : 199 Kbps
Channel(s) : 2 channels
Channel positions : L R
Sampling rate : 48.0 KHz
Resolution : 16 bits
Stream size : 131 MiB (3%)

Audio #2
ID : 3
Format : AAC
Format/Info : Advanced Audio Codec
Format version : Version 4
Format profile : LC
Format settings, SBR : No
Codec ID : 40
Duration : 1h 35mn
Bit rate mode : Variable
Bit rate : 448 Kbps
Maximum bit rate : 459 Kbps
Channel(s) : 6 channels
Channel positions : Front: L C R, Rear: L R, LFE
Sampling rate : 48.0 KHz
Resolution : 16 bits
Stream size : 307 MiB (8%)

English SRT : ----

Language : English
